<svg width="24" height="22" viewBox="0 0 24 22" fill="none" xmlns="http://www.w3.org/2000/svg">
<path fill-rule="evenodd" clip-rule="evenodd" d="M2.34842 0C1.90876 0 1.55235 0.360928 1.55235 0.806155V4.03078C1.55235 4.476 1.90876 4.83693 2.34842 4.83693H2.98528V14.647C1.20808 15.677 0 16.9593 0 18.6222C0 19.6218 1.68503 21.2959 2.1494 21.6856H17.9515C17.2616 21.5512 15.205 20.0894 15.205 17.8966C15.205 16.2497 17.2171 13.9769 18.8231 12.1627C19.8899 10.9576 20.7776 9.95494 20.7776 9.47232C20.7776 8.50494 19.8223 7.43006 19.3446 7.01355H16.0807C16.3063 7.18822 16.7574 7.90032 16.7574 9.10955C16.7574 9.99509 14.7963 10.707 11.7168 11.5413L11.5033 11.5992V4.28402C11.6507 4.13771 11.7421 3.93383 11.7421 3.70831V3.06339C11.7421 2.61816 11.3857 2.25723 10.946 2.25723H10.4684C10.0287 2.25723 9.67231 2.61816 9.67231 3.06339V3.70831C9.67231 3.93383 9.76375 4.13771 9.91114 4.28402V12.0366C8.10032 12.5451 6.21315 13.1268 4.57743 13.8474V4.83693H5.05508C5.49474 4.83693 5.85115 4.476 5.85115 4.03078V0.806155C5.85115 0.360928 5.49474 0 5.05508 0H2.34842ZM3.1445 1.61231V3.22462H4.259V1.61231H3.1445Z" fill="#98693A"/>
<path d="M21.494 7.86001C22.3166 8.3437 23.9619 9.31109 23.9619 10.5606C23.9619 11.4932 23.0166 12.5821 22.0567 13.6878C21.0667 14.8282 20.0611 15.9866 20.0611 17.0099C20.0611 18.4104 21.5387 19.4137 22.6635 20.1774L22.6881 20.1942L20.2601 21.7662C19.0395 20.8257 17.2748 18.7834 17.2748 17.5742C17.2748 16.3526 18.7669 14.7119 20.0762 13.2723C21.0997 12.1468 22.0115 11.1442 22.0115 10.5606C22.0115 9.29485 21.4609 8.68241 21.0248 8.19723C20.9193 8.07986 20.8205 7.96994 20.7378 7.86001H21.494Z" fill="#98693A"/>
</svg>
