<svg width="24" height="24" viewBox="0 0 24 24" fill="none" xmlns="http://www.w3.org/2000/svg">
<path d="M15.1183 18.6353C15.1731 18.3717 15.1375 18.0846 14.9848 17.82L12.6862 13.8387C13.3849 13.6399 13.7623 12.8141 13.3709 12.1362L12.6311 10.8549L14.3727 7.83846C14.4624 7.68317 14.3503 7.48905 14.171 7.48905H12.957C12.7776 7.48905 12.6656 7.29493 12.7552 7.13964L16.8101 0.11647C16.8997 -0.0388235 17.1239 -0.0388235 17.2135 0.11647L21.2683 7.13964C21.358 7.29493 21.2459 7.48905 21.0666 7.48905H19.806C19.6267 7.48905 19.5146 7.68317 19.6043 7.83846L22.3546 12.6021C22.4442 12.7574 22.3322 12.9515 22.1529 12.9515H21.2921C21.1128 12.9515 21.0007 13.1456 21.0904 13.3009L23.9684 18.2859C24.0581 18.4411 23.946 18.6353 23.7667 18.6353H15.1183Z" fill="#98693A"/>
<path d="M11.276 7.48905C11.4553 7.48905 11.5674 7.29493 11.4777 7.13964L7.4229 0.11647C7.33324 -0.0388235 7.10909 -0.0388235 7.01943 0.11647L2.96461 7.13964C2.87495 7.29493 2.98702 7.48905 3.16634 7.48905H4.38034C4.55966 7.48905 4.67173 7.68317 4.58207 7.83846L1.83178 12.6021C1.74212 12.7574 1.8542 12.9515 2.03351 12.9515H2.89424C3.07356 12.9515 3.18563 13.1456 3.09597 13.3009L0.21792 18.2859C0.128261 18.4411 0.240335 18.6353 0.419653 18.6353H13.9761C14.1554 18.6353 14.2675 18.4411 14.1778 18.2859L11.2998 13.3009C11.2101 13.1456 11.3222 12.9515 11.5015 12.9515H12.3622C12.5415 12.9515 12.6536 12.7574 12.564 12.6021L9.81367 7.83846C9.72401 7.68317 9.83609 7.48905 10.0154 7.48905H11.276Z" fill="#98693A"/>
<path d="M0 22.3594H5.57812V19.3125H8.71875V22.3594H15.0938V19.3125H18.2812V22.3594H23.8594V24H0V22.3594Z" fill="#98693A"/>
</svg>
