<svg width="24" height="24" viewBox="0 0 24 24" fill="none" xmlns="http://www.w3.org/2000/svg">
<path d="M17.4426 13.0682C17.5304 12.993 17.6599 12.993 17.7477 13.0682L19.8451 14.8661V14.1093C19.8451 13.9799 19.9501 13.875 20.0795 13.875H21.1108C21.2402 13.875 21.3451 13.9799 21.3451 14.1093V16.1518L23.9053 18.3463C24.0036 18.4305 24.0149 18.5785 23.9307 18.6768L23.2596 19.4597C23.1753 19.558 23.0274 19.5694 22.9291 19.4852L17.5951 14.9131L12.2612 19.4851C12.1629 19.5694 12.0149 19.558 11.9307 19.4597L11.2596 18.6768C11.1753 18.5785 11.1867 18.4305 11.285 18.3463L17.4426 13.0682Z" fill="#98693A"/>
<path d="M13.0951 19.6172L17.5951 15.75L22.0951 19.6172V22.875H18.7201V20.1093C18.7201 19.9799 18.6152 19.875 18.4858 19.875H16.7045C16.5751 19.875 16.4701 19.9799 16.4701 20.1093V22.875H13.0951V19.6172Z" fill="#98693A"/>
<path d="M11.1465 6.42193C11.2195 6.35931 11.3273 6.35931 11.4004 6.42193L13.1462 7.91837V6.94505C13.1462 6.83731 13.2335 6.74997 13.3413 6.74997H14.1996C14.3074 6.74997 14.3947 6.83731 14.3947 6.94505V8.98854L16.5256 10.8151C16.6074 10.8852 16.6169 11.0083 16.5468 11.0901L15.9882 11.7418C15.9181 11.8236 15.7949 11.8331 15.7131 11.763L11.2734 7.95751L6.83378 11.763C6.75198 11.8331 6.62882 11.8236 6.55871 11.7418L6.00009 11.0901C5.92998 11.0083 5.93945 10.8852 6.02125 10.8151L11.1465 6.42193Z" fill="#98693A"/>
<path d="M7.52791 11.8729L11.2734 8.65406L15.019 11.8729V14.5845H12.2098V12.2825C12.2098 12.1748 12.1225 12.0875 12.0147 12.0875H10.5321C10.4244 12.0875 10.3371 12.1748 10.3371 12.2825V14.5845H7.52791V11.8729Z" fill="#98693A"/>
<path d="M5.16756 1.16178C5.22476 1.11274 5.30918 1.11274 5.36638 1.16178L6.7334 2.33353V1.57139C6.7334 1.48702 6.80179 1.41864 6.88615 1.41864H7.55826C7.64262 1.41864 7.71101 1.48702 7.71101 1.57139V3.1715L9.37957 4.60173C9.44363 4.65663 9.45104 4.75306 9.39614 4.81711L8.95873 5.32741C8.90383 5.39147 8.8074 5.39888 8.74334 5.34398L5.26697 2.36417L1.7906 5.34398C1.72654 5.39888 1.63011 5.39147 1.57521 5.32741L1.1378 4.81711C1.08289 4.75306 1.09031 4.65663 1.15436 4.60173L5.16756 1.16178Z" fill="#98693A"/>
<path d="M2.33412 5.70792L5.26697 3.1875L8.19982 5.70792V7.83118H6.00018V6.0287C6.00018 5.94434 5.93179 5.87595 5.84743 5.87595H4.68651C4.60215 5.87595 4.53376 5.94434 4.53376 6.0287V7.83118H2.33412V5.70792Z" fill="#98693A"/>
<path d="M1.19714 8.62497H0.111832C0.0500688 8.62497 0 8.67503 0 8.7368C0 8.75568 0.00478396 8.77427 0.0139051 8.7908L7.74115 22.8023C7.76589 22.8471 7.81306 22.875 7.86429 22.875H11.8051C11.9996 22.875 12.1094 22.6518 11.9908 22.4976L1.38287 8.71638C1.3385 8.65874 1.26988 8.62497 1.19714 8.62497Z" fill="#98693A"/>
</svg>
