<svg width="24" height="24" viewBox="0 0 24 24" fill="none" xmlns="http://www.w3.org/2000/svg">
<path fill-rule="evenodd" clip-rule="evenodd" d="M10.0255 0.693023C8.6238 0.26346 7.09592 0 6.42188 0C5.0239 0 3.89062 1.13328 3.89062 2.53125C3.89062 3.92922 5.0239 5.0625 6.42188 5.0625C7.09592 5.0625 8.6238 4.79904 10.0255 4.36948C10.3033 4.63263 10.6409 4.83345 11.0156 4.94954V6.18243C9.75381 6.34156 9.1713 6.92359 8.71291 7.38161C8.60093 7.49349 8.49591 7.59842 8.39062 7.6875H5.76562C3.42188 7.6875 1.64062 9.96094 1.64062 11.7891V17.1563H7.35938V13.4063H8.4375C8.50235 13.516 8.6139 13.6491 8.76562 13.7906C9.32677 14.3141 10.4373 14.9531 11.7656 14.9531C13.4531 14.9531 14.7578 13.9219 15.0469 13.4063H17.7211C17.7699 14.3982 18.5897 15.1875 19.5938 15.1875H20.9531V16.6406H22.3594V4.64062H20.9531V6.09375H19.5938C18.6538 6.09375 17.8754 6.78539 17.7397 7.6875H15.1406C15.0298 7.5983 14.9187 7.49367 14.7998 7.38161C14.3133 6.92329 13.695 6.34079 12.4219 6.18212V4.9766C12.8341 4.86624 13.2049 4.6544 13.5058 4.36948C14.9074 4.79904 16.4353 5.0625 17.1094 5.0625C18.5073 5.0625 19.6406 3.92922 19.6406 2.53125C19.6406 1.13328 18.5073 0 17.1094 0C16.4353 0 14.9074 0.26346 13.5058 0.693023C13.0522 0.26346 12.4397 0 11.7656 0C11.0916 0 10.4791 0.26346 10.0255 0.693023ZM19.5938 13.7812C19.3349 13.7812 19.125 13.5714 19.125 13.3125V7.96875C19.125 7.70987 19.3349 7.5 19.5938 7.5H20.9531V13.7812H19.5938ZM9.23438 2.53125C9.23438 2.7328 9.25793 2.92885 9.30244 3.1168C8.07238 3.46665 6.86388 3.65625 6.42188 3.65625C5.80055 3.65625 5.29688 3.15257 5.29688 2.53125C5.29688 1.90993 5.80055 1.40625 6.42188 1.40625C6.86388 1.40625 8.07238 1.59585 9.30244 1.9457C9.25793 2.13365 9.23438 2.3297 9.23438 2.53125ZM17.1094 3.65625C16.6674 3.65625 15.4589 3.46665 14.2288 3.1168C14.2733 2.92885 14.2969 2.7328 14.2969 2.53125C14.2969 2.3297 14.2733 2.13365 14.2288 1.9457C15.4589 1.59585 16.6674 1.40625 17.1094 1.40625C17.7307 1.40625 18.2344 1.90993 18.2344 2.53125C18.2344 3.15257 17.7307 3.65625 17.1094 3.65625Z" fill="#98693A"/>
<path fill-rule="evenodd" clip-rule="evenodd" d="M6.79688 21.6563C6.79688 22.9507 5.74754 24 4.45312 24C3.15871 24 2.10938 22.9272 2.10938 21.6328C2.10938 20.3384 4.26562 17.7656 4.45312 17.7656C4.64062 17.7656 6.79688 20.3618 6.79688 21.6563Z" fill="#98693A"/>
</svg>
