<svg width="23" height="23" viewBox="0 0 23 23" fill="none" xmlns="http://www.w3.org/2000/svg">
<path d="M10.0789 12.5847C13.0858 10.6636 13.1052 5.80805 10.4408 1.72622C10.3633 1.60737 10.2076 1.42985 10.046 1.2457C9.79128 0.95524 9.52204 0.648275 9.52204 0.529002C9.52204 -4.77944e-07 9.91183 0 10.1067 0C16.4826 0 20.6589 6.06961 20.6589 11.2356C20.6589 11.9294 20.6589 12.6961 20.6032 13.2529H9.52204C9.52204 13.0706 9.78086 12.7792 10.0789 12.5847Z" fill="#98693A"/>
<path d="M2.88486 12.9449C1.86602 12.6794 1.90614 12.2279 2.80457 11.6789C4.35904 10.7291 5.85756 9.34119 7.10337 7.59171C8.34782 5.84414 9.16888 3.97627 9.55855 2.19841L9.57772 2.17169C9.70765 2.34803 10.0009 2.75638 10.1346 2.97912C10.2682 3.20186 10.4501 3.53596 10.5244 3.67517V10.9251C10.3666 11.0978 9.98979 11.4933 9.74478 11.6937C9.65829 11.7645 9.56515 11.833 9.47162 11.9019C9.23393 12.0768 8.99368 12.2535 8.85383 12.4733C8.69791 12.7183 8.64037 13.0951 8.63109 13.2529H3.84222C3.72157 13.1972 3.40788 13.0691 3.11832 13.0023C3.04008 12.9843 2.96206 12.965 2.88486 12.9449Z" fill="#98693A"/>
<path d="M3.01252 20.6539C1.59248 19.0654 0.619188 17.069 0.290063 14.8623C0.241668 14.5378 0.499835 14.2552 0.827904 14.2552H21.8914C22.2194 14.2552 22.4776 14.5377 22.4292 14.8622C22.1463 16.7593 21.3873 18.5009 20.2776 19.9616C19.9901 19.8637 19.6588 19.7958 19.2668 19.7958C18.441 19.7958 17.8628 20.0979 17.3949 20.3423L17.3872 20.3463C16.9157 20.5926 16.5672 20.7703 16.065 20.7703C15.5967 20.7703 15.3369 20.6129 14.9365 20.3705L14.9019 20.3496C14.4561 20.0798 13.9051 19.768 12.9745 19.768C12.0498 19.768 11.4672 20.0752 11.0035 20.3444C10.9802 20.358 10.9574 20.3712 10.9351 20.3842C10.5178 20.6271 10.2718 20.7703 9.88399 20.7703C9.44841 20.7703 9.05924 20.5915 8.55504 20.3411C8.54524 20.3363 8.53537 20.3314 8.52545 20.3264L8.49321 20.3104C8.03815 20.0838 7.46001 19.7958 6.7935 19.7958C6.14906 19.7958 5.58952 20.0604 5.13525 20.2751C5.10165 20.291 5.06863 20.3066 5.03619 20.3218C4.53394 20.5574 4.09708 20.7425 3.5638 20.7425C3.35752 20.7425 3.18175 20.7103 3.01252 20.6539Z" fill="#98693A"/>
<path d="M11.4632 22.396C11.0751 22.6247 10.5837 22.9142 9.88399 22.9142C9.15805 22.9142 8.55019 22.6123 8.07519 22.3765L8.05981 22.3688C7.54242 22.112 7.18227 21.9397 6.7935 21.9397C6.40583 21.9397 6.05818 22.1027 5.5338 22.3487L5.50905 22.3603C5.00202 22.5981 4.36696 22.8863 3.5638 22.8863C2.80034 22.8863 2.27022 22.5952 1.84758 22.3631L1.81346 22.3444C1.38724 22.1107 1.05773 21.9397 0.556845 21.9397C0.249308 21.9397 0 21.6904 0 21.3828C0 21.0753 0.249308 20.826 0.556845 20.826C1.3608 20.826 1.90698 21.1255 2.34287 21.3646L2.34896 21.3679C2.78386 21.6064 3.09506 21.7726 3.5638 21.7726C4.09708 21.7726 4.53394 21.5875 5.03619 21.352C5.06863 21.3368 5.10165 21.3212 5.13525 21.3053C5.58952 21.0905 6.14906 20.826 6.7935 20.826C7.46001 20.826 8.03815 21.1139 8.49321 21.3405C8.51408 21.3509 8.53469 21.3612 8.55504 21.3713C9.05924 21.6216 9.44841 21.8005 9.88399 21.8005C10.2718 21.8005 10.5178 21.6573 10.9351 21.4143C10.9574 21.4014 10.9802 21.3881 11.0035 21.3746C11.4672 21.1053 12.0498 20.7981 12.9745 20.7981C13.9051 20.7981 14.4561 21.11 14.9019 21.3797L14.9365 21.4007C15.3369 21.6431 15.5967 21.8005 16.065 21.8005C16.5672 21.8005 16.9157 21.6228 17.3872 21.3765L17.3949 21.3725C17.8628 21.128 18.441 20.826 19.2668 20.826C20.1021 20.826 20.6623 21.1344 21.1085 21.3842C21.5542 21.6338 21.853 21.8005 22.3016 21.8005C22.6092 21.8005 22.8585 22.0498 22.8585 22.3573C22.8585 22.6648 22.6092 22.9142 22.3016 22.9142C21.5578 22.9142 21.0342 22.6199 20.6184 22.3862C20.6002 22.376 20.5822 22.3659 20.5643 22.3559C20.1405 22.1185 19.7958 21.9397 19.2668 21.9397C18.7329 21.9397 18.3663 22.1215 17.9028 22.3636L17.8665 22.3826C17.4117 22.6205 16.8503 22.9142 16.065 22.9142C15.2809 22.9142 14.7867 22.6133 14.3898 22.3717L14.3882 22.3707C14.367 22.3578 14.3461 22.3451 14.3254 22.3326C13.943 22.1012 13.603 21.9118 12.9745 21.9118C12.34 21.9118 11.962 22.1058 11.5627 22.3377C11.5303 22.3565 11.4972 22.376 11.4632 22.396Z" fill="#98693A"/>
</svg>
