<svg width="40" height="40" viewBox="0 0 40 40" fill="none" xmlns="http://www.w3.org/2000/svg">
<path fill-rule="evenodd" clip-rule="evenodd" d="M32.9201 18.29C32.9209 17.7252 32.7759 17.1698 32.4991 16.6775C32.2223 16.1852 31.8231 15.7727 31.3401 15.48C31.794 15.0169 32.1015 14.4304 32.224 13.7936C32.3466 13.1568 32.2788 12.498 32.0291 11.8996C31.7795 11.3011 31.3591 10.7894 30.8204 10.4285C30.2817 10.0675 29.6485 9.87326 29.0001 9.87C28.6621 9.86308 28.3251 9.9069 28.0001 10C27.9059 9.30631 27.6373 8.64784 27.2195 8.08616C26.8016 7.52447 26.2482 7.07791 25.6109 6.78823C24.9736 6.49854 24.2732 6.3752 23.5753 6.42972C22.8774 6.48424 22.2047 6.71486 21.6201 7.1C21.2579 6.19801 20.5905 5.45179 19.7344 4.99147C18.8783 4.53114 17.8878 4.38592 16.9356 4.58112C15.9834 4.77632 15.13 5.29956 14.524 6.0596C13.9181 6.81963 13.5982 7.76824 13.6201 8.74C13.6201 8.85 13.6201 8.96 13.6201 9.07C13.0014 8.86883 12.337 8.85558 11.7109 9.03193C11.0847 9.20828 10.5248 9.5663 10.1021 10.0608C9.67935 10.5552 9.41267 11.1639 9.33578 11.8099C9.25889 12.4559 9.37523 13.1101 9.6701 13.69C8.95674 13.8655 8.31694 14.2615 7.84183 14.8218C7.36672 15.3821 7.08053 16.0781 7.02402 16.8105C6.9675 17.543 7.14356 18.2745 7.5271 18.9011C7.91064 19.5276 8.4821 20.0172 9.1601 20.3C8.86275 20.8158 8.71716 21.4051 8.7401 22C8.7259 22.6156 8.89017 23.2221 9.21309 23.7464C9.536 24.2707 10.0038 24.6904 10.5599 24.9547C11.116 25.219 11.7368 25.3167 12.3472 25.236C12.9577 25.1554 13.5317 24.8997 14.0001 24.5C15.4315 24.9984 16.7309 25.8156 17.8001 26.89C17.9191 27.0267 17.9894 27.199 18.0001 27.38C18.1087 28.5508 18.1087 29.7292 18.0001 30.9C17.8885 32.4266 17.6067 33.9359 17.1601 35.4H22.1601C21.7173 33.9355 21.4389 32.4262 21.3301 30.9C21.2231 29.7682 21.2398 28.6281 21.3801 27.5C21.3888 27.3776 21.4281 27.2595 21.4945 27.1563C21.561 27.0532 21.6523 26.9685 21.7601 26.91C22.9548 26.1454 24.047 25.2313 25.0101 24.19C25.4218 24.6342 25.9583 24.9433 26.5491 25.0768C27.1398 25.2103 27.7571 25.1618 28.3198 24.9378C28.8825 24.7138 29.3642 24.3248 29.7016 23.8218C30.039 23.3189 30.2163 22.7256 30.2101 22.12C30.2105 21.9251 30.1904 21.7307 30.1501 21.54C30.9102 21.3999 31.5973 20.9982 32.0923 20.4046C32.5873 19.811 32.8589 19.0629 32.8601 18.29H32.9201ZM17.6601 25.16C16.7377 24.5356 15.7681 23.9839 14.7601 23.51C15.0146 23.0473 15.1487 22.5281 15.1501 22C15.157 21.6606 15.1063 21.3224 15.0001 21C15.4902 21.2869 16.0293 21.4802 16.5901 21.57C16.9501 22.44 17.4601 23.72 17.9901 24.93C18.0075 24.9692 18.0119 25.0131 18.0025 25.0549C17.9931 25.0968 17.9704 25.1346 17.9379 25.1626C17.9054 25.1907 17.8647 25.2075 17.8219 25.2106C17.779 25.2138 17.7363 25.203 17.7001 25.18L17.6601 25.16ZM19.5701 24.36C18.9021 23.4929 18.3163 22.5656 17.8201 21.59C18.4311 21.5199 19.0215 21.327 19.556 21.0228C20.0904 20.7186 20.5578 20.3095 20.9301 19.82C21.1228 20.0989 21.344 20.3569 21.5901 20.59C20.8778 21.7506 20.3166 22.9973 19.9201 24.3C19.909 24.3349 19.8885 24.3661 19.8608 24.3901C19.8332 24.4142 19.7995 24.4302 19.7633 24.4364C19.7272 24.4426 19.6901 24.4387 19.656 24.4253C19.6219 24.4118 19.5922 24.3892 19.5701 24.36ZM21.5001 25.47C21.4669 25.4902 21.4286 25.5002 21.3898 25.499C21.351 25.4977 21.3134 25.4852 21.2816 25.4629C21.2497 25.4407 21.2251 25.4096 21.2106 25.3736C21.1962 25.3375 21.1925 25.2981 21.2001 25.26C21.3637 23.8706 21.7592 22.5185 22.3701 21.26C22.956 21.6381 23.6126 21.8932 24.3001 22.01C24.2952 22.0699 24.2952 22.1301 24.3001 22.19C24.2982 22.5817 24.3764 22.9697 24.5301 23.33C23.6122 24.1663 22.6063 24.9006 21.5301 25.52" fill="#986839"/>
</svg>
