<svg width="16" height="16" viewBox="0 0 16 16" fill="none" xmlns="http://www.w3.org/2000/svg">
<path fill-rule="evenodd" clip-rule="evenodd" d="M12.85 4.65L9.35 1.15C9.25 1.05 9.15 1 9 1H4C3.45 1 3 1.45 3 2V14C3 14.55 3.45 15 4 15H12C12.55 15 13 14.55 13 14V5C13 4.85 12.95 4.75 12.85 4.65ZM9 2.2L11.8 5H9V2.2ZM12 14H4V2H8V5C8 5.55 8.45 6 9 6H12V14Z" fill="#986839"/>
<path d="M5 8C5 7.72386 5.22386 7.5 5.5 7.5H10.5C10.7761 7.5 11 7.72386 11 8C11 8.27614 10.7761 8.5 10.5 8.5H5.5C5.22386 8.5 5 8.27614 5 8Z" fill="#986839"/>
<path d="M5 10C5 9.72386 5.22386 9.5 5.5 9.5H10.5C10.7761 9.5 11 9.72386 11 10C11 10.2761 10.7761 10.5 10.5 10.5H5.5C5.22386 10.5 5 10.2761 5 10Z" fill="#986839"/>
<path d="M5 12C5 11.7239 5.22386 11.5 5.5 11.5H8.5C8.77614 11.5 9 11.7239 9 12C9 12.2761 8.77614 12.5 8.5 12.5H5.5C5.22386 12.5 5 12.2761 5 12Z" fill="#986839"/>
</svg>
