<svg width="18" height="16" viewBox="0 0 18 16" fill="none" xmlns="http://www.w3.org/2000/svg">
<path fill-rule="evenodd" clip-rule="evenodd" d="M1.76132 0C1.43157 0 1.16426 0.262493 1.16426 0.586295V2.93147C1.16426 3.25527 1.43157 3.51777 1.76132 3.51777H2.23896V10.6524C0.906057 11.4015 0 12.3341 0 13.5434C0 14.2704 1.26377 15.4879 1.61205 15.7713H13.4636C12.9462 15.6736 11.4038 14.6105 11.4038 13.0157C11.4038 11.8179 12.9128 10.165 14.1174 8.84557C14.9174 7.9692 15.5832 7.23996 15.5832 6.88896C15.5832 6.18541 14.8667 5.40368 14.5085 5.10076H12.0605C12.2297 5.22779 12.568 5.74569 12.568 6.62513C12.568 7.26916 11.0972 7.78688 8.78762 8.39369L8.62747 8.43578V3.11565C8.738 3.00925 8.80658 2.86096 8.80658 2.69695V2.22792C8.80658 1.90412 8.53927 1.64162 8.20953 1.64162H7.85129C7.52155 1.64162 7.25424 1.90412 7.25424 2.22792V2.69695C7.25424 2.86096 7.32282 3.00925 7.43335 3.11565V8.75391C6.07524 9.12371 4.65986 9.54674 3.43307 10.0709V3.51777H3.79131C4.12105 3.51777 4.38836 3.25527 4.38836 2.93147V0.586295C4.38836 0.262493 4.12105 0 3.79131 0H1.76132ZM2.35837 1.17259V2.34518H3.19425V1.17259H2.35837Z" fill="#98693A"/>
<path d="M16.1205 5.71637C16.7375 6.06815 17.9714 6.7717 17.9714 7.68046C17.9714 8.3587 17.2625 9.1506 16.5425 9.95475C15.8 10.7842 15.0458 11.6266 15.0458 12.3708C15.0458 13.3894 16.154 14.119 16.9976 14.6745L17.0161 14.6867L15.1951 15.83C14.2796 15.1459 12.9561 13.6607 12.9561 12.7812C12.9561 11.8928 14.0752 10.6996 15.0571 9.65256C15.8248 8.83407 16.5086 8.1049 16.5086 7.68046C16.5086 6.75989 16.0957 6.31448 15.7686 5.96163C15.6895 5.87626 15.6153 5.79632 15.5533 5.71637H16.1205Z" fill="#98693A"/>
</svg>
