<svg width="16" height="16" viewBox="0 0 16 16" fill="none" xmlns="http://www.w3.org/2000/svg">
<path fill-rule="evenodd" clip-rule="evenodd" d="M3.7 6.7L3 6L8 1L13 6L12.3 6.7L8.5 2.9V12.5H7.5V2.9L3.7 6.7ZM13 14V12H14V14C14 14.55 13.55 15 13 15H3C2.45 15 2 14.55 2 14V12H3V14H13Z" fill="#986839"/>
<mask id="mask0_101_118" style="mask-type:alpha" maskUnits="userSpaceOnUse" x="2" y="1" width="12" height="14">
<path fill-rule="evenodd" clip-rule="evenodd" d="M3.7 6.7L3 6L8 1L13 6L12.3 6.7L8.5 2.9V12.5H7.5V2.9L3.7 6.7ZM13 14V12H14V14C14 14.55 13.55 15 13 15H3C2.45 15 2 14.55 2 14V12H3V14H13Z" fill="white"/>
</mask>
<g mask="url(#mask0_101_118)">
</g>
</svg>
